# xmcd
#
# Track frame offsets:
#	182
#	13672
#	32091
#	56587
#	69659
#	83946
#	104373
#	123475
#	139548
#	159537
#
# Disc length: 2402 seconds
# Revision: 0
# Processed by: cddbd v1.5.2PL0 Copyright (c) Steve Scherf et al.
# Submitted via: dBpowerAMP V12.0
#
DISCID=8309600a
DTITLE=Wild Ponies - Galax
DYEAR=2017
DGENRE=Country
TTITLE0=Sally Ann
TTITLE1=Tower And The Wheel
TTITLE2=Pretty Bird
TTITLE3=To My Grave
TTITLE4=Will They Still Know Me
TTITLE5=Hearts And Bones
TTITLE6=Jackknife
TTITLE7=Mamma Bird
TTITLE8=Goodnight Partner
TTITLE9=Here With Me
EXTD=
EXTT0=
EXTT1=
EXTT2=
EXTT3=
EXTT4=
EXTT5=
EXTT6=
EXTT7=
EXTT8=
EXTT9=
PLAYORDER=
